# xmcd
#
# Track frame offsets:
#	150
#	15671
#	42350
#	66449
#	87111
#	110812
#	131059
#	143733
#	160371
#	181723
#
# Disc length: 2726 seconds
#
# Revision: 0
# Processed by: cddbd v1.5.2PL0 Copyright (c) Steve Scherf et al.
# Submitted via: dBpowerAMP V4.0
#
DISCID=880aa40a
DTITLE=Jack Yoder and the 2 Piece Suit - Songs We Don't Know
DYEAR=1900
DGENRE=Blues
TTITLE0=Red River Blues
TTITLE1=Spoonfed
TTITLE2=Breakfast King
TTITLE3=Benzidrine
TTITLE4=Black Was The Tide
TTITLE5=Howlin' To Moan
TTITLE6=Black Car Flood
TTITLE7=Walkin' Shoes
TTITLE8=Just Outside of Nashville
TTITLE9=Joshua's Last Stand
EXTD=Playing solo, Jack Yoder recently won the Colorado Blues Society Solo/Duo competition and will compete at the International Blues Challenge representing Colorado in the solo/duo division there. The IBC takes place in Memphis Jan 29, 2013 - Feb 2, 2
EXTD=013.
EXTT0=
EXTT1=
EXTT2=
EXTT3=
EXTT4=
EXTT5=
EXTT6=
EXTT7=
EXTT8=
EXTT9=
PLAYORDER=
